<svg width="156" height="24" viewBox="0 0 156 24" fill="none" xmlns="http://www.w3.org/2000/svg"> <path fill-rule="evenodd" clip-rule="evenodd" d="M27 11H21C20.448 11 20 10.553 20 10V1C20 0.447 20.448 0 21 0H27C27.552 0 28 0.447 28 1V10C28 10.553 27.552 11 27 11ZM11 24H17C17.552 24 18 23.553 18 23V10C18 9.447 17.552 9 17 9H11C10.448 9 10 9.447 10 10V23C10 23.553 10.448 24 11 24ZM1 24H7C7.552 24 8 23.553 8 23V18C8 17.447 7.552 17 7 17H1C0.448 17 0 17.447 0 18V23C0 23.553 0.448 24 1 24ZM21 24H27C27.552 24 28 23.553 28 23V14C28 13.447 27.552 13 27 13H21C20.448 13 20 13.447 20 14V23C20 23.553 20.448 24 21 24Z" fill="#1D90F5"/> <path opacity="0.25" fill-rule="evenodd" clip-rule="evenodd" d="M1 15H7C7.552 15 8 14.553 8 14V1C8 0.447 7.552 0 7 0H1C0.448 0 0 0.447 0 1V14C0 14.553 0.448 15 1 15ZM11 7H17C17.552 7 18 6.553 18 6V1C18 0.447 17.552 0 17 0H11C10.448 0 10 0.447 10 1V6C10 6.553 10.448 7 11 7Z" fill="#1D90F5"/> <path fill-rule="evenodd" clip-rule="evenodd" d="M46.51 18.8878C44.866 18.8878 43.138 18.0098 42.146 16.5078L39 19.1438C40.446 21.3538 43.138 22.7418 46.34 22.7418C50.506 22.7418 53.368 20.2768 53.396 16.6778C53.396 13.6458 51.554 11.7758 48.607 10.6978L46.992 10.1038C44.866 9.33781 43.875 8.79981 43.875 7.58081C43.875 6.39081 45.178 5.79581 46.567 5.79581C47.955 5.79581 49.202 6.36181 50.166 7.52481L52.886 4.71881C51.158 2.79181 49.004 1.94281 46.539 1.94281C42.628 1.94281 39.737 4.18081 39.737 7.97781C39.737 10.7268 41.466 12.5968 44.696 13.7308L46.396 14.3258C48.38 15.0058 49.202 15.7988 49.202 16.9328C49.202 18.0948 48.125 18.8878 46.51 18.8878ZM74.8989 10.1972V19.1582C74.8989 20.9262 76.3319 22.3582 78.0989 22.3582H82.9949V18.5172H79.2829V10.1972H82.9949V6.35721H79.2829V2.37821H74.8989V6.35721H71.7949V10.1972H74.8989ZM85.5967 6.35741H89.9544V8.18141C90.8132 6.93341 92.2445 6.00541 94.1848 6.00541C96.5068 6.00541 97.962 7.09341 98.9162 8.94941C99.9023 6.96541 102.034 6.00541 103.846 6.00541C107.632 6.00541 109.597 8.75741 109.597 13.0784V22.3584H105.238V13.8134C105.238 11.4454 104.574 10.0054 102.856 10.0054C100.981 10.0054 99.775 11.4774 99.775 14.5494V22.3584H95.4174V13.8134C95.4174 11.4454 94.7534 10.0054 93.0358 10.0054C91.1591 10.0054 89.9544 11.4774 89.9544 14.5494V22.3584H85.5967V6.35741ZM123.965 14.3573C123.965 16.8223 122.301 18.6143 119.997 18.6143C117.693 18.6143 115.997 16.8223 115.997 14.3573C115.997 11.8933 117.693 10.1013 119.997 10.1013C122.301 10.1013 123.965 11.8933 123.965 14.3573ZM111.581 14.3573C111.581 19.0303 115.357 22.7103 119.997 22.7103C124.637 22.7103 128.414 19.0303 128.414 14.3573C128.414 9.68531 124.637 6.00631 119.997 6.00631C115.357 6.00631 111.581 9.68531 111.581 14.3573ZM143.465 12.4063H150.953C150.569 10.5173 148.969 9.62231 147.337 9.62231C145.705 9.62231 143.881 10.4543 143.465 12.4063ZM154.715 19.4553C153.209 21.4163 150.715 22.7103 147.529 22.7103C142.761 22.7103 139.049 19.4143 139.049 14.3573C139.049 9.62231 142.601 6.00631 147.465 6.00631C151.657 6.00631 155.337 8.69331 155.337 13.8783C155.337 14.2613 155.337 14.7103 155.273 15.3823H143.305C143.561 17.5263 145.449 18.7103 147.561 18.7103C149.285 18.7103 150.598 18.0093 151.375 17.1113L154.715 19.4553ZM134.781 10.1973V22.3583H130.397V9.55731C130.397 7.79031 131.83 6.35731 133.597 6.35731H134.781H138.393V10.1973H134.781ZM59.2832 12.4063H66.7712C66.3872 10.5173 64.7872 9.62231 63.1552 9.62231C61.5232 9.62231 59.6992 10.4543 59.2832 12.4063ZM70.5332 19.4553C69.0272 21.4163 66.5322 22.7103 63.3472 22.7103C58.5792 22.7103 54.8672 19.4143 54.8672 14.3573C54.8672 9.62231 58.4192 6.00631 63.2832 6.00631C67.4752 6.00631 71.1552 8.69331 71.1552 13.8783V13.8784C71.1552 14.2614 71.1552 14.7104 71.0912 15.3823H59.1232C59.3792 17.5263 61.2672 18.7103 63.3792 18.7103C65.1032 18.7103 66.4162 18.0093 67.1932 17.1113L70.5332 19.4553Z" fill="#303A47"/> </svg>